# xmcd CD database file
#
# Track frame offsets:
#	150
#	7622
#	25582
#	39282
#	50790
#	71140
#	88110
#	109377
#	122032
#	140262
#	148635
#	165502
#
# Disc length: 2404 seconds
#
# Revision: 0
# Processed by: cddbd v1.5PL3 Copyright (c) Steve Scherf et al.
# Submitted via: CDex 1.51
#
DISCID=9b09620c
DTITLE=Zipflo Weinrich Quartet - Bonjour Madame
DYEAR=1990
DGENRE=Jazz
TTITLE0=Mit 'nem Kuss vor der Haustuer fing es an
TTITLE1=There'll never be another you
TTITLE2=There's no greater love
TTITLE3=Hallo kleines Fräulein
TTITLE4=Sweet Lorraine
TTITLE5=Secret love
TTITLE6=Yesterdays
TTITLE7=Pentup House
TTITLE8=You had be so nice to come home
TTITLE9=Bonjour Madame
TTITLE10=Softly as in Morning Sunrise
TTITLE11=Bernie's Tune
EXTD=YEAR: 1990
EXTT0=
EXTT1=
EXTT2=
EXTT3=
EXTT4=
EXTT5=
EXTT6=
EXTT7=
EXTT8=
EXTT9=
EXTT10=
EXTT11=
PLAYORDER=
